<svg width="111" height="30" viewBox="0 0 111 30" fill="none" xmlns="http://www.w3.org/2000/svg">
<g clip-path="url(#clip0_1_277)">
<path d="M11.6562 1.12109L14.1259 8.72191H22.1178L15.6522 13.4195L18.1218 21.0203L11.6562 16.3227L5.19056 21.0203L7.66022 13.4195L1.19458 8.72191H9.18655L11.6562 1.12109Z" fill="#FFB301"/>
</g>
<g clip-path="url(#clip1_1_277)">
<path d="M33.6562 1.12109L36.1259 8.72191H44.1178L37.6522 13.4195L40.1218 21.0203L33.6562 16.3227L27.1906 21.0203L29.6602 13.4195L23.1946 8.72191H31.1866L33.6562 1.12109Z" fill="#FFB301"/>
</g>
<g clip-path="url(#clip2_1_277)">
<path d="M55.6562 1.12109L58.1259 8.72191H66.1178L59.6522 13.4195L62.1218 21.0203L55.6562 16.3227L49.1906 21.0203L51.6602 13.4195L45.1946 8.72191H53.1866L55.6562 1.12109Z" fill="#FFB301"/>
</g>
<g clip-path="url(#clip3_1_277)">
<path d="M77.6562 1.12109L80.1259 8.72191H88.1178L81.6522 13.4195L84.1218 21.0203L77.6562 16.3227L71.1906 21.0203L73.6602 13.4195L67.1946 8.72191H75.1866L77.6562 1.12109Z" fill="#FFB301"/>
</g>
<g clip-path="url(#clip4_1_277)">
<path d="M99.6562 1.12109L102.126 8.72191H110.118L103.652 13.4195L106.122 21.0203L99.6562 16.3227L93.1906 21.0203L95.6602 13.4195L89.1946 8.72191H97.1866L99.6562 1.12109Z" fill="#FFB301"/>
</g>
<defs>
<clipPath id="clip0_1_277">
<rect width="22" height="23" fill="white" transform="translate(0.65625 0.5)"/>
</clipPath>
<clipPath id="clip1_1_277">
<rect width="22" height="23" fill="white" transform="translate(22.6562 0.5)"/>
</clipPath>
<clipPath id="clip2_1_277">
<rect width="22" height="23" fill="white" transform="translate(44.6562 0.5)"/>
</clipPath>
<clipPath id="clip3_1_277">
<rect width="22" height="23" fill="white" transform="translate(66.6562 0.5)"/>
</clipPath>
<clipPath id="clip4_1_277">
<rect width="22" height="23" fill="white" transform="translate(88.6562 0.5)"/>
</clipPath>
</defs>
</svg>
